<svg width="445" height="481" viewBox="0 0 445 481" fill="none" xmlns="http://www.w3.org/2000/svg">
<g clip-path="url(#clip0_1_3)">
<path d="M102.304 254.459C102.103 258.094 102.843 261.714 104.449 264.927C106.088 268.209 105.923 272.019 104.006 275.12C102.117 278.175 98.8389 280 95.2374 280H49.1514C46.9404 280 45.1474 278.207 45.1474 275.996L45.1474 229.91C45.1474 228.788 44.4692 228.202 44.0648 227.952C43.7176 227.737 42.7879 227.299 41.6616 227.861C37.2052 230.088 32.1938 231.117 27.17 230.837C12.5196 230.022 0.595359 217.892 0.0231928 203.222C-0.288716 195.297 2.56251 187.803 8.04353 182.105C13.5266 176.403 20.9018 173.263 28.8105 173.263C33.3434 173.263 37.6832 174.288 41.7104 176.31C42.7987 176.856 43.708 176.426 44.0487 176.216C44.4591 175.963 45.1474 175.37 45.1474 174.24L45.1474 128.151C45.1474 125.94 46.9404 124.147 49.1514 124.147L95.237 124.147C96.3581 124.147 96.9447 123.469 97.1949 123.064C97.4099 122.718 97.8476 121.788 97.2854 120.662C95.0592 116.206 94.0286 111.197 94.3089 106.171C95.1245 91.5203 107.254 79.5957 121.923 79.0232C129.842 78.7141 137.342 81.5621 143.041 87.0431C148.743 92.5265 151.883 99.9018 151.883 107.811C151.883 112.344 150.859 116.684 148.837 120.711C148.29 121.801 148.721 122.709 148.93 123.049C149.184 123.46 149.777 124.148 150.907 124.148L196.996 124.148C199.207 124.148 201 125.941 201 128.152V174.237C201 177.839 199.176 181.117 196.12 183.006C193.02 184.923 189.209 185.088 185.927 183.448C182.714 181.844 179.095 181.102 175.459 181.304C164.887 181.893 156.282 190.649 155.869 201.236C155.647 206.954 157.702 212.377 161.659 216.491C165.619 220.608 170.944 222.875 176.655 222.875C179.929 222.875 183.06 222.137 185.962 220.68C189.217 219.046 193.006 219.208 196.097 221.115C199.167 223.008 200.999 226.295 200.999 229.907V275.996C200.999 278.207 199.206 280 196.995 279.999H150.907C147.295 279.999 144.008 278.167 142.115 275.097C140.208 272.006 140.046 268.218 141.68 264.962C143.137 262.06 143.876 258.928 143.876 255.654C143.876 249.944 141.608 244.619 137.491 240.659C133.376 236.702 127.958 234.645 122.236 234.869C111.648 235.282 102.893 243.887 102.304 254.459ZM143.042 234.887C148.743 240.371 151.883 247.746 151.883 255.655C151.883 260.188 150.859 264.527 148.837 268.555C148.29 269.644 148.72 270.553 148.93 270.893C149.184 271.303 149.777 271.992 150.907 271.992H192.991V229.907C192.991 228.777 192.303 228.184 191.893 227.93C191.552 227.721 190.643 227.291 189.555 227.838C185.527 229.859 181.187 230.884 176.654 230.884C168.746 230.884 161.37 227.744 155.887 222.042C150.675 216.623 147.844 209.576 147.844 202.088C147.844 201.702 147.852 201.313 147.866 200.925C148.438 186.255 160.363 174.125 175.013 173.309C180.037 173.029 185.048 174.059 189.504 176.285C190.631 176.848 191.561 176.409 191.908 176.195C192.312 175.945 192.99 175.358 192.99 174.237V132.155L150.906 132.155C147.294 132.155 144.008 130.322 142.114 127.253C140.208 124.162 140.045 120.373 141.679 117.118C143.136 114.216 143.875 111.084 143.875 107.81C143.875 102.1 141.607 96.7743 137.49 92.8144C133.375 88.8573 127.957 86.8008 122.235 87.0247C111.647 87.4383 102.892 96.0436 102.304 106.616C102.103 110.249 102.843 113.87 104.448 117.082C106.087 120.364 105.922 124.175 104.006 127.276C102.117 130.332 98.8385 132.156 95.2366 132.156H53.1546L53.1546 174.24C53.1546 177.852 51.3219 181.139 48.2525 183.032C45.1622 184.939 41.3729 185.101 38.1173 183.467C35.2152 182.01 32.0841 181.271 28.8101 181.271C23.0996 181.271 17.7744 183.539 13.8148 187.656C9.85772 191.771 7.79889 197.188 8.02431 202.91C8.43712 213.499 17.0424 222.254 27.6145 222.842C31.2505 223.045 34.8697 222.304 38.0824 220.698C41.3645 219.058 45.1751 219.224 48.2757 221.141C51.3311 223.03 53.1554 226.308 53.1554 229.91L53.1554 271.992H95.237C96.3581 271.992 96.9451 271.313 97.1949 270.909C97.4099 270.561 97.8476 269.632 97.2854 268.506C95.0592 264.05 94.0286 259.042 94.3089 254.015C95.1245 239.365 107.254 227.44 121.924 226.867C129.842 226.558 137.343 229.407 143.042 234.887Z" fill="#E8E8E8"/>
<path d="M60.0309 158.911V143.035C60.0309 140.824 61.8239 139.031 64.0349 139.031C66.2459 139.031 68.0389 140.824 68.0389 143.035V158.911C68.0389 161.122 66.2459 162.915 64.0349 162.915C61.8239 162.915 60.0309 161.122 60.0309 158.911Z" fill="#E8E8E8"/>
<path d="M60.0309 178.26V173.795C60.0309 171.584 61.8239 169.791 64.0349 169.791C66.2459 169.791 68.0389 171.584 68.0389 173.795V178.26C68.0389 180.471 66.2459 182.264 64.0349 182.264C61.8239 182.264 60.0309 180.471 60.0309 178.26Z" fill="#E8E8E8"/>
</g>
<g clip-path="url(#clip1_1_3)">
<path d="M102.304 455.459C102.103 459.094 102.843 462.714 104.449 465.926C106.088 469.208 105.923 473.019 104.006 476.12C102.117 479.175 98.8389 480.999 95.2374 480.999H49.1514C46.9404 480.999 45.1474 479.206 45.1474 476.995L45.1474 430.909C45.1474 429.788 44.4692 429.201 44.0648 428.951C43.7176 428.736 42.7879 428.298 41.6616 428.861C37.2052 431.088 32.1938 432.117 27.17 431.837C12.5196 431.021 0.595359 418.891 0.0231928 404.222C-0.288716 396.297 2.56251 388.803 8.04353 383.104C13.5266 377.403 20.9018 374.263 28.8105 374.263C33.3434 374.263 37.6832 375.288 41.7104 377.31C42.7987 377.856 43.708 377.426 44.0487 377.216C44.4591 376.963 45.1474 376.369 45.1474 375.24L45.1474 329.151C45.1474 326.94 46.9404 325.147 49.1514 325.147H95.237C96.3581 325.147 96.9447 324.469 97.1949 324.064C97.4099 323.717 97.8476 322.788 97.2854 321.661C95.0592 317.205 94.0286 312.197 94.3089 307.171C95.1245 292.52 107.254 280.596 121.923 280.023C129.842 279.714 137.342 282.562 143.041 288.043C148.743 293.526 151.883 300.902 151.883 308.811C151.883 313.344 150.859 317.683 148.837 321.711C148.29 322.8 148.721 323.709 148.93 324.049C149.184 324.459 149.777 325.148 150.907 325.148H196.996C199.207 325.148 201 326.941 201 329.152V375.237C201 378.839 199.176 382.117 196.12 384.006C193.02 385.923 189.209 386.088 185.927 384.448C182.714 382.844 179.095 382.102 175.459 382.304C164.887 382.893 156.282 391.649 155.869 402.236C155.647 407.953 157.702 413.376 161.659 417.491C165.619 421.608 170.944 423.875 176.655 423.875C179.929 423.875 183.06 423.137 185.962 421.68C189.217 420.045 193.006 420.208 196.097 422.115C199.167 424.008 200.999 427.295 200.999 430.907V476.995C200.999 479.206 199.206 480.999 196.995 480.999H150.907C147.295 480.999 144.008 479.166 142.115 476.097C140.208 473.006 140.046 469.218 141.68 465.962C143.137 463.06 143.876 459.928 143.876 456.654C143.876 450.944 141.608 445.618 137.491 441.659C133.376 437.701 127.958 435.645 122.236 435.868C111.648 436.282 102.893 444.887 102.304 455.459ZM143.042 435.887C148.743 441.371 151.883 448.746 151.883 456.654C151.883 461.187 150.859 465.527 148.837 469.555C148.29 470.643 148.72 471.552 148.93 471.893C149.184 472.303 149.777 472.991 150.907 472.991H192.991V430.907C192.991 429.777 192.303 429.184 191.893 428.93C191.552 428.72 190.643 428.291 189.555 428.837C185.527 430.859 181.187 431.884 176.654 431.884C168.746 431.884 161.37 428.744 155.887 423.042C150.675 417.623 147.844 410.576 147.844 403.088C147.844 402.702 147.852 402.313 147.866 401.924C148.438 387.255 160.363 375.125 175.013 374.309C180.037 374.029 185.048 375.059 189.504 377.285C190.631 377.848 191.561 377.409 191.908 377.195C192.312 376.944 192.99 376.358 192.99 375.237V333.155H150.906C147.294 333.155 144.008 331.322 142.114 328.253C140.208 325.162 140.045 321.373 141.679 318.117C143.136 315.215 143.875 312.084 143.875 308.81C143.875 303.1 141.607 297.774 137.49 293.814C133.375 289.857 127.957 287.801 122.235 288.024C111.647 288.438 102.892 297.043 102.304 307.615C102.103 311.249 102.843 314.87 104.448 318.082C106.087 321.364 105.922 325.174 104.006 328.275C102.117 331.331 98.8385 333.155 95.2366 333.155H53.1546L53.1546 375.24C53.1546 378.852 51.3219 382.138 48.2525 384.032C45.1622 385.939 41.3729 386.101 38.1173 384.467C35.2152 383.01 32.0841 382.271 28.8101 382.271C23.0996 382.271 17.7744 384.539 13.8148 388.656C9.85772 392.77 7.79889 398.187 8.02431 403.91C8.43712 414.498 17.0424 423.253 27.6145 423.842C31.2505 424.045 34.8697 423.303 38.0824 421.698C41.3645 420.058 45.1751 420.224 48.2757 422.141C51.3311 424.029 53.1554 427.308 53.1554 430.909L53.1554 472.991H95.237C96.3581 472.991 96.9451 472.313 97.1949 471.909C97.4099 471.561 97.8476 470.632 97.2854 469.506C95.0592 465.05 94.0286 460.042 94.3089 455.015C95.1245 440.364 107.254 428.44 121.924 427.867C129.842 427.558 137.343 430.406 143.042 435.887Z" fill="#E8E8E8"/>
<path d="M60.0309 359.911V344.035C60.0309 341.824 61.8239 340.031 64.0349 340.031C66.2459 340.031 68.0389 341.824 68.0389 344.035V359.911C68.0389 362.122 66.2459 363.915 64.0349 363.915C61.8239 363.915 60.0309 362.122 60.0309 359.911Z" fill="#E8E8E8"/>
<path d="M60.0309 379.26V374.795C60.0309 372.584 61.8239 370.791 64.0349 370.791C66.2459 370.791 68.0389 372.584 68.0389 374.795V379.26C68.0389 381.471 66.2459 383.264 64.0349 383.264C61.8239 383.264 60.0309 381.471 60.0309 379.26Z" fill="#E8E8E8"/>
</g>
<g clip-path="url(#clip2_1_3)">
<path d="M317.304 455.459C317.103 459.094 317.843 462.714 319.449 465.927C321.088 469.209 320.923 473.019 319.006 476.12C317.117 479.175 313.839 480.999 310.237 480.999H264.151C261.94 480.999 260.147 479.207 260.147 476.996V430.91C260.147 429.788 259.469 429.201 259.065 428.952C258.718 428.737 257.788 428.299 256.662 428.861C252.205 431.088 247.194 432.117 242.17 431.837C227.52 431.022 215.595 418.892 215.023 404.222C214.711 396.297 217.563 388.803 223.044 383.105C228.527 377.403 235.902 374.263 243.81 374.263C248.343 374.263 252.683 375.288 256.71 377.31C257.799 377.856 258.708 377.426 259.049 377.216C259.459 376.963 260.147 376.37 260.147 375.24V329.151C260.147 326.94 261.94 325.147 264.151 325.147H310.237C311.358 325.147 311.945 324.469 312.195 324.064C312.41 323.718 312.848 322.788 312.285 321.661C310.059 317.205 309.029 312.197 309.309 307.171C310.124 292.52 322.254 280.596 336.923 280.023C344.842 279.714 352.342 282.562 358.041 288.043C363.743 293.526 366.883 300.902 366.883 308.811C366.883 313.344 365.859 317.684 363.837 321.711C363.29 322.801 363.721 323.709 363.93 324.049C364.184 324.459 364.777 325.148 365.907 325.148H411.996C414.207 325.148 416 326.941 416 329.152V375.237C416 378.839 414.176 382.117 411.12 384.006C408.02 385.923 404.209 386.088 400.927 384.448C397.714 382.844 394.095 382.102 390.459 382.304C379.887 382.893 371.282 391.649 370.869 402.236C370.647 407.954 372.702 413.377 376.659 417.491C380.619 421.608 385.944 423.875 391.655 423.875C394.929 423.875 398.06 423.137 400.962 421.68C404.217 420.046 408.006 420.208 411.097 422.115C414.167 424.008 415.999 427.295 415.999 430.907V476.996C415.999 479.207 414.206 480.999 411.995 480.999H365.907C362.295 480.999 359.008 479.166 357.115 476.097C355.208 473.006 355.046 469.218 356.68 465.962C358.137 463.06 358.876 459.928 358.876 456.654C358.876 450.944 356.608 445.618 352.491 441.659C348.376 437.701 342.958 435.645 337.236 435.868C326.648 436.282 317.893 444.887 317.304 455.459ZM358.042 435.887C363.743 441.371 366.883 448.746 366.883 456.655C366.883 461.188 365.859 465.527 363.837 469.555C363.29 470.644 363.72 471.553 363.93 471.893C364.184 472.303 364.777 472.992 365.907 472.992H407.991V430.907C407.991 429.777 407.303 429.184 406.893 428.93C406.552 428.721 405.643 428.291 404.555 428.837C400.527 430.859 396.187 431.884 391.654 431.884C383.746 431.884 376.37 428.744 370.887 423.042C365.675 417.623 362.844 410.576 362.844 403.088C362.844 402.702 362.852 402.313 362.866 401.924C363.438 387.255 375.363 375.125 390.013 374.309C395.037 374.029 400.048 375.059 404.504 377.285C405.631 377.848 406.561 377.409 406.908 377.195C407.312 376.945 407.99 376.358 407.99 375.237V333.155H365.906C362.294 333.155 359.008 331.322 357.114 328.253C355.208 325.162 355.045 321.373 356.679 318.118C358.136 315.216 358.875 312.084 358.875 308.81C358.875 303.1 356.607 297.774 352.49 293.814C348.375 289.857 342.957 287.801 337.235 288.025C326.647 288.438 317.892 297.044 317.304 307.616C317.103 311.249 317.843 314.87 319.448 318.082C321.087 321.364 320.922 325.175 319.006 328.276C317.117 331.331 313.839 333.156 310.237 333.156H268.155V375.24C268.155 378.852 266.322 382.139 263.253 384.032C260.162 385.939 256.373 386.101 253.117 384.467C250.215 383.01 247.084 382.271 243.81 382.271C238.1 382.271 232.774 384.539 228.815 388.656C224.858 392.771 222.799 398.188 223.024 403.91C223.437 414.499 232.042 423.254 242.614 423.842C246.25 424.045 249.87 423.304 253.082 421.698C256.364 420.058 260.175 420.224 263.276 422.141C266.331 424.03 268.155 427.308 268.155 430.91V472.992H310.237C311.358 472.992 311.945 472.313 312.195 471.909C312.41 471.561 312.848 470.632 312.285 469.506C310.059 465.05 309.029 460.042 309.309 455.015C310.124 440.365 322.254 428.44 336.924 427.867C344.842 427.558 352.343 430.407 358.042 435.887Z" fill="#E8E8E8"/>
<path d="M275.031 359.911V344.035C275.031 341.824 276.824 340.031 279.035 340.031C281.246 340.031 283.039 341.824 283.039 344.035V359.911C283.039 362.122 281.246 363.915 279.035 363.915C276.824 363.915 275.031 362.122 275.031 359.911Z" fill="#E8E8E8"/>
<path d="M275.031 379.26V374.795C275.031 372.584 276.824 370.791 279.035 370.791C281.246 370.791 283.039 372.584 283.039 374.795V379.26C283.039 381.471 281.246 383.264 279.035 383.264C276.824 383.264 275.031 381.471 275.031 379.26Z" fill="#E8E8E8"/>
</g>
<g clip-path="url(#clip3_1_3)">
<path d="M343.145 198.634C344.2 202.118 346.133 205.267 348.74 207.736C351.403 210.26 352.552 213.897 351.811 217.466C351.081 220.983 348.624 223.819 345.24 225.051L301.933 240.813C299.855 241.569 297.557 240.498 296.801 238.42L281.039 195.113C280.655 194.06 279.817 193.74 279.352 193.644C278.952 193.56 277.929 193.467 277.063 194.381C273.637 197.998 269.279 200.678 264.463 202.134C250.417 206.378 235.063 199.058 229.508 185.469C226.505 178.128 226.621 170.111 229.822 162.882C233.025 155.649 238.881 150.176 246.313 147.471C250.572 145.92 255.001 145.399 259.477 145.921C260.686 146.063 261.394 145.348 261.642 145.034C261.941 144.656 262.385 143.863 261.999 142.801L246.235 99.4918C245.479 97.4142 246.551 95.1161 248.629 94.3599L291.935 78.5977C292.988 78.2143 293.308 77.3763 293.404 76.9103C293.488 76.5109 293.581 75.4876 292.667 74.6215C289.051 71.1956 286.37 66.8416 284.914 62.0227C280.67 47.9768 287.99 32.6228 301.578 27.0675C308.914 24.0687 316.936 24.1798 324.166 27.381C331.399 30.5836 336.873 36.4401 339.578 43.8722C341.128 48.1317 341.649 52.5603 341.127 57.0362C340.986 58.2472 341.701 58.9534 342.014 59.2015C342.393 59.5005 343.186 59.9443 344.248 59.5579L387.557 43.7945C389.635 43.0383 391.933 44.1099 392.689 46.1875L408.451 89.4938C409.683 92.8785 409.09 96.5824 406.865 99.4026C404.607 102.265 401.083 103.723 397.437 103.305C393.87 102.896 390.215 103.437 386.868 104.87C377.135 109.039 372.043 120.21 375.276 130.3C377.023 135.749 380.808 140.142 385.935 142.655C391.063 145.169 396.843 145.478 402.209 143.525C405.286 142.405 407.976 140.641 410.205 138.279C412.704 135.63 416.32 134.487 419.877 135.221C423.409 135.951 426.255 138.412 427.491 141.806L443.254 185.116C444.01 187.193 442.939 189.491 440.861 190.247L397.552 206.01C394.158 207.245 390.443 206.648 387.614 204.411C384.765 202.158 383.317 198.654 383.738 195.036C384.115 191.81 383.738 188.615 382.618 185.538C380.665 180.172 376.713 175.944 371.49 173.631C366.269 171.32 360.475 171.24 355.174 173.407C345.366 177.417 340.083 188.498 343.145 198.634ZM374.732 166.309C381.965 169.512 387.438 175.368 390.143 182.8C391.694 187.059 392.215 191.488 391.693 195.965C391.551 197.174 392.266 197.881 392.58 198.129C392.958 198.428 393.751 198.872 394.813 198.486L434.36 184.092L419.966 144.545C419.579 143.483 418.73 143.162 418.257 143.064C417.865 142.983 416.864 142.891 416.029 143.776C412.935 147.053 409.207 149.501 404.948 151.051C397.516 153.756 389.512 153.328 382.41 149.845C375.658 146.536 370.588 140.882 368.027 133.846C367.895 133.483 367.769 133.115 367.649 132.744C363.17 118.764 370.226 103.287 383.714 97.5093C388.339 95.5285 393.4 94.7818 398.349 95.3501C399.601 95.4932 400.324 94.7634 400.577 94.443C400.871 94.0695 401.308 93.2863 400.925 92.2328L386.532 52.6887L346.985 67.0824C343.592 68.3176 339.876 67.7197 337.047 65.483C334.199 63.2307 332.75 59.7258 333.172 56.1077C333.548 52.8824 333.172 49.6875 332.052 46.6109C330.099 41.2449 326.146 37.0159 320.923 34.703C315.703 32.392 309.909 32.3124 304.608 34.4799C294.8 38.4898 289.516 49.5706 292.579 59.7064C293.633 63.1896 295.567 66.3393 298.174 68.8086C300.836 71.3316 301.985 74.9687 301.245 78.5383C300.515 82.0559 298.058 84.8913 294.673 86.1232L255.129 100.516L269.523 140.063C270.758 143.456 270.16 147.172 267.924 150.001C265.672 152.849 262.167 154.298 258.548 153.876C255.323 153.5 252.128 153.876 249.052 154.996C243.685 156.949 239.457 160.901 237.144 166.124C234.833 171.344 234.751 177.139 236.92 182.439C240.93 192.248 252.01 197.532 262.146 194.469C265.632 193.416 268.779 191.481 271.25 188.874C273.773 186.21 277.41 185.063 280.979 185.804C284.497 186.533 287.332 188.99 288.564 192.374L302.957 231.919L342.5 217.526C343.554 217.142 343.874 216.304 343.97 215.839C344.053 215.439 344.147 214.416 343.233 213.55C339.617 210.124 336.936 205.771 335.48 200.951C331.236 186.905 338.555 171.551 352.144 165.996C359.48 162.996 367.502 163.108 374.732 166.309Z" fill="#E8E8E8"/>
<path d="M270.742 123.306L265.312 108.388C264.556 106.31 265.627 104.012 267.705 103.256C269.783 102.5 272.081 103.571 272.837 105.649L278.267 120.567C279.023 122.645 277.951 124.943 275.874 125.699C273.796 126.455 271.498 125.384 270.742 123.306Z" fill="#E8E8E8"/>
<path d="M277.36 141.488L275.832 137.292C275.076 135.215 276.148 132.917 278.226 132.16C280.303 131.404 282.601 132.476 283.357 134.553L284.884 138.749C285.641 140.827 284.569 143.125 282.491 143.881C280.414 144.637 278.116 143.566 277.36 141.488Z" fill="#E8E8E8"/>
</g>
<defs>
<clipPath id="clip0_1_3">
<rect width="201" height="201" fill="white" transform="matrix(0 1 1 0 0 79)"/>
</clipPath>
<clipPath id="clip1_1_3">
<rect width="201" height="201" fill="white" transform="matrix(0 1 1 0 0 280)"/>
</clipPath>
<clipPath id="clip2_1_3">
<rect width="201" height="201" fill="white" transform="matrix(0 1 1 0 215 280)"/>
</clipPath>
<clipPath id="clip3_1_3">
<rect width="201" height="201" fill="white" transform="matrix(0.34202 0.939693 0.939693 -0.34202 187 68.746)"/>
</clipPath>
</defs>
</svg>
